<?xml version="1.0" encoding="utf-8"?>
<!-- Generator: Adobe Illustrator 24.0.1, SVG Export Plug-In . SVG Version: 6.00 Build 0)  -->
<svg version="1.1" id="Layer_1" xmlns="http://www.w3.org/2000/svg" xmlns:xlink="http://www.w3.org/1999/xlink" x="0px" y="0px"
	 viewBox="0 0 256 256" style="enable-background:new 0 0 256 256;" xml:space="preserve">
<style type="text/css">
	.st0{fill:#FFFFFF;}
</style>
<g>
	<path class="st0" d="M49.8,132.4c0-28.9,0-57.7,0-86.6c0-8,2.6-14.9,10.1-19.1c3.6-2,7.5-2.7,11.5-2.7c37.6,0,75.3,0,112.9,0
		c13.4,0,21.7,8.1,21.9,21.5c0.1,13.2,0,26.4,0,39.6c0,44.1,0,88.2,0,132.4c0,1.4,0.1,2.8-0.1,4.2c-0.9,9.1-9.2,13.1-16.8,8
		c-7.7-5.2-15.2-10.7-22.8-16c-11.5-8.1-23.1-16.1-34.4-24.3c-2.9-2.1-5-2.2-8-0.1c-18.9,13.4-37.9,26.6-56.8,39.9
		c-3.9,2.7-7.8,3.6-12.1,1.4c-4.4-2.2-5.3-6.3-5.3-10.7C49.8,190.8,49.8,161.6,49.8,132.4z"/>
</g>
</svg>
