<?xml version="1.0" encoding="utf-8"?>
<!-- Generator: Adobe Illustrator 24.0.1, SVG Export Plug-In . SVG Version: 6.00 Build 0)  -->
<svg version="1.1" id="Layer_1" xmlns="http://www.w3.org/2000/svg" xmlns:xlink="http://www.w3.org/1999/xlink" x="0px" y="0px"
	 viewBox="0 0 256 256" style="enable-background:new 0 0 256 256;" xml:space="preserve">
<style type="text/css">
	.st0{fill:#F6F6F6;}
</style>
<g>
	<g>
		<g>
			<path class="st0" d="M127.8,193.4c-21.5,0-42.9,0-64.4,0c-13.5,0-23.3-9.7-23.3-23.2c0-28.2,0-56.4,0-84.6
				c0-13.8,9.5-23.4,23.3-23.5c42.9-0.1,85.7-0.1,128.6,0c13.9,0,23.4,9.7,23.4,23.7c0,27.7-0.2,55.5,0.1,83.2
				c0.1,14.9-10.8,24.8-24.4,24.5C170,193.1,148.9,193.4,127.8,193.4z M127.7,78.8c-16.5,0-32.9,0-49.4,0c-5,0-10,0-15,0
				c-2,0-4,0.2-5.3,2.1C55.9,84,57,91.5,59.8,93.9c18.3,15.1,36.7,30.1,55,45.2c7.5,6.1,18.2,6.5,25.4,0.5
				c18.3-15,36.4-30.2,54.8-45.1c2.7-2.2,3.7-4.5,3.6-7.9c-0.2-6.6-1.3-7.9-7.8-7.9C169.7,78.8,148.7,78.8,127.7,78.8z M127.8,176.8
				c20.9,0,41.9,0,62.8,0c6.5,0,7.9-1.4,7.9-7.8c0-16.8,0-33.7,0-50.5c0-1.4,0.7-3.5-0.5-4.1c-1.4-0.6-2.6,1.3-3.7,2.2
				c-14.3,11.7-28.5,23.5-42.8,35.2c-14.9,12.1-33.8,11.6-48.5-0.8c-14.3-12-28.7-23.8-43.2-35.6c-0.7-0.5-1.3-1.6-2.3-1.1
				c-0.9,0.5-0.5,1.7-0.5,2.5c0,17.6,0,35.1,0,52.7c0,5.7,1.6,7.2,7.4,7.2C85.5,176.8,106.6,176.8,127.8,176.8z"/>
		</g>
	</g>
</g>
</svg>
