<?xml version="1.0" encoding="utf-8"?>
<!-- Generator: Adobe Illustrator 24.0.1, SVG Export Plug-In . SVG Version: 6.00 Build 0)  -->
<svg version="1.1" id="Layer_1" xmlns="http://www.w3.org/2000/svg" xmlns:xlink="http://www.w3.org/1999/xlink" x="0px" y="0px"
	 viewBox="0 0 256 256" style="enable-background:new 0 0 256 256;" xml:space="preserve">
<style type="text/css">
	.st0{fill:#FFFFFF;}
</style>
<g>
	<g>
		<path class="st0" d="M121.2,212.7c-13.9,0-27.8,0-41.7,0c-16-0.1-28.4-10.3-31.3-26c-0.4-2-0.6-4-0.6-6c0-27.6-0.2-55.2,0-82.7
			c0.1-13.3,6.3-23.4,18.5-29.3c3.7-1.8,7.8-2.7,11.9-2.8c10.9-0.1,21.8-0.1,32.7,0c6.2,0,10.7,4.5,10.7,10.5
			c0,6.2-4.4,10.6-10.7,10.7c-9.6,0-19.3,0-28.9,0c-1.5,0-3.1,0.1-4.6,0.4c-4.6,0.8-7.9,4.4-8.1,9.1c-0.1,4.5-0.1,9.1-0.1,13.6
			c0,23.6,0,47.2,0,70.8c0,6.1,3,9.5,9,10.4c1.1,0.2,2.2,0.2,3.3,0.2c12,0,24,0,36,0c14.5,0,28.9,0,43.4,0c1.3,0,2.6-0.1,4-0.3
			c5.3-0.8,8.5-4.4,8.5-9.7c0.1-10.3,0-20.7,0-31c0-2.8,0.6-5.4,2.4-7.6c2.9-3.5,7.9-4.7,12.4-3.1c3.9,1.4,6.6,5.3,6.6,10
			c0.1,10.5,0.1,21.1,0,31.6c-0.1,4.6-1,9-3,13.2c-5.6,11.3-14.7,17.7-27.3,18C150,213,135.6,212.7,121.2,212.7
			C121.2,212.7,121.2,212.7,121.2,212.7z"/>
		<path class="st0" d="M98.1,170.8c-6.2,0-10-5.2-8-11.3c2.6-8.1,5.7-16.1,8.2-24.2c1.8-5.9,5-10.7,9.4-15
			c16.6-16.3,33-32.9,49.5-49.4c1.9-1.9,2-1.9,3.9,0c9.6,9.6,19.1,19.2,28.7,28.7c1.4,1.4,1.4,2.1,0,3.5c-17.7,17.6-35.4,35.3-53,53
			c-2.2,2.2-4.8,3.8-7.8,4.8c-9.1,3.1-18.2,6.2-27.4,9.3C100.4,170.5,99.3,170.9,98.1,170.8z"/>
		<path class="st0" d="M189.3,46.6c3.8-0.2,7.1,1.2,10.1,3.3c3.9,2.6,7.2,6,10.1,9.6c6.3,7.8,5.8,17.1-1.1,24.7
			c-2.8,3.1-5.9,5.9-8.8,8.9c-1,1-1.7,0.8-2.6-0.1c-9.9-9.9-19.8-19.8-29.8-29.8c-0.7-0.7-1.3-1.3-0.3-2.2
			c3.9-3.6,7.2-7.8,11.5-10.9C181.8,47.8,185.3,46.3,189.3,46.6z"/>
	</g>
</g>
</svg>
