<?xml version="1.0" encoding="utf-8"?>
<!-- Generator: Adobe Illustrator 24.0.1, SVG Export Plug-In . SVG Version: 6.00 Build 0)  -->
<svg version="1.1" id="Layer_1" xmlns="http://www.w3.org/2000/svg" xmlns:xlink="http://www.w3.org/1999/xlink" x="0px" y="0px"
	 viewBox="0 0 256 256" style="enable-background:new 0 0 256 256;" xml:space="preserve">
<style type="text/css">
	.st0{fill:#FFFFFF;}
</style>
<g>
	<path class="st0" d="M44.9,175.8c0-10.8,0-21.5,0-32.3c0-2.5-0.7-3.4-3.2-3.2c-3.4,0.2-6.9,0.2-10.3-0.6c-4.8-1.2-8.2-3.9-9.6-8.7
		c-1.4-4.8,0-9,3.5-12.2c8.5-7.8,17.3-15.3,26-22.9C65.2,84,79,71.7,92.9,59.7c9.1-8,18.3-16,27.4-23.9c4.6-4,11.6-3.6,16.3,0.6
		c9.8,8.5,19.5,17.2,29.2,25.9c19.5,17.2,39.1,34.4,58.6,51.6c2.2,2,4.3,4,6.6,6c3.6,3,4.3,7,3,11.2c-1.3,4.3-4.2,7.4-8.7,8.5
		c-3.4,0.9-6.8,1.1-10.3,0.9c-4,0-4.1,0.1-4.1,4.2c0,20.6,0,41.1,0,61.7c0,4.3-0.8,8.3-4.1,11.7c-3.3,3.4-7,5.1-11.8,5
		c-9.6-0.1-19.1,0-28.7,0c-7.5,0-13.3-5-14.9-12.3c-0.6-3.3-0.5-6.6-0.5-9.7c0-8.5-0.2-17.2,0.1-25.7c0.2-5.3-4.4-11.3-10.9-11
		c-8.3,0.4-16.7,0-25.2,0.1c-6.4,0-10.5,4.2-10.5,10.5c0,10.5,0,20.9,0,31.5c0,5.4-1.6,9.8-5.7,13.3c-2.7,2.2-5.6,3.5-9.2,3.4
		c-9.9,0-19.9,0-29.8,0c-8.3,0-15-6.7-15-15.1C44.9,197.1,44.9,186.5,44.9,175.8z"/>
</g>
</svg>
