<?xml version="1.0" encoding="utf-8"?>
<!-- Generator: Adobe Illustrator 24.0.1, SVG Export Plug-In . SVG Version: 6.00 Build 0)  -->
<svg version="1.1" id="Layer_1" xmlns="http://www.w3.org/2000/svg" xmlns:xlink="http://www.w3.org/1999/xlink" x="0px" y="0px"
	 viewBox="0 0 256 256" style="enable-background:new 0 0 256 256;" xml:space="preserve">
<style type="text/css">
	.st0{fill:#FFFFFF;}
</style>
<g>
	<path class="st0" d="M154.6,204.2c-17.8,0-35.5,0-53.3,0c-4.9,0-9.4-2.8-10.6-7.3c-1.4-4.9-1.1-10.2,2.9-13.5
		c2.6-2.2,5.6-2.8,9-2.8c33.1,0,66.2,0,99.3,0c2,0,3.9,0,5.9,0c6.5,0.2,11.4,5.2,11.4,11.7c0,6.6-5,11.9-11.6,11.9
		C189.9,204.2,172.3,204.2,154.6,204.2z"/>
	<path class="st0" d="M154.3,145.5c-17.6,0-35.1,0-52.7,0c-4.7,0-8.6-1.8-10.4-6.2c-1.7-4.1-1.9-8.6,0.8-12.6
		c2.4-3.5,5.9-4.8,10.1-4.8c22,0,43.9,0,65.9,0c12.9,0,25.8,0,38.7,0c7.5,0,12.6,4.9,12.6,12.1c0,6.7-5.1,11.5-12.5,11.5
		C189.2,145.5,171.7,145.5,154.3,145.5z"/>
	<path class="st0" d="M154.4,87c-17.3,0-34.6,0-51.8,0c-3.2,0-6.2-0.7-8.7-2.7c-4.4-3.5-4.4-8.4-3.3-13.1c1-4.4,4.4-6.8,8.8-7.6
		c1-0.2,2.1-0.3,3.2-0.3c34.6,0,69.1,0,103.7,0c4.9,0,9,1.4,11.5,6.1c4.3,8.4-1,17.6-10.5,17.7C189.6,87.1,172,87,154.4,87z"/>
	<path class="st0" d="M54.8,92.8c-2.7,0-5.5,0-8.2,0c-5.5-0.1-9.3-3.5-9.5-9c-0.2-5.7-0.2-11.5,0-17.3c0.2-5.5,3.7-8.8,9.2-9
		c5.8-0.2,11.5-0.2,17.3,0c5.1,0.2,8.1,2.6,8.8,7.7c0.9,6.9,1,13.8-0.1,20.7c-0.6,4.1-4,6.7-8.6,6.9c-0.2,0-0.4,0-0.6,0
		C60.2,92.8,57.5,92.8,54.8,92.8z"/>
	<path class="st0" d="M54.6,210c-2.5,0-5.1,0-7.6,0c-6-0.1-9.8-3.4-10-9.5c-0.2-5.5-0.2-10.9,0-16.4c0.3-6.2,3.8-9.4,10-9.4
		c5.3,0,10.5,0,15.8,0c5.6,0.1,8.9,2.6,9.6,8.2c0.8,6.5,0.8,13-0.1,19.5c-0.7,4.7-4.1,7.5-8.9,7.6C60.5,210.1,57.5,210,54.6,210z"/>
	<path class="st0" d="M54.9,116c2.9,0,5.9-0.1,8.8,0c4.6,0.2,8,3,8.6,7.6c0.9,6.6,0.9,13.2,0,19.8c-0.6,4.9-3.5,7.6-8.3,7.9
		c-6,0.3-12.1,0.3-18.1,0c-5.4-0.3-8.7-3.9-8.9-9.4s-0.1-10.9,0-16.4c0.1-5.7,4-9.4,9.7-9.6C49.4,116,52.1,116,54.9,116L54.9,116z"
		/>
</g>
</svg>
