<?xml version="1.0" encoding="utf-8"?>
<!-- Generator: Adobe Illustrator 24.0.1, SVG Export Plug-In . SVG Version: 6.00 Build 0)  -->
<svg version="1.1" id="Layer_1" xmlns="http://www.w3.org/2000/svg" xmlns:xlink="http://www.w3.org/1999/xlink" x="0px" y="0px"
	 viewBox="0 0 256 256" style="enable-background:new 0 0 256 256;" xml:space="preserve">
<style type="text/css">
	.st0{fill:#FFFFFF;}
</style>
<g>
	<path class="st0" d="M122.8,154.7c-4-0.2-9,0.5-13.9-0.3c-8.6-1.3-12.9-5.4-13.7-13.9c-0.7-7.1-0.7-14.3,0.1-21.4
		c1-8.7,7-13.6,15.7-13.7c8.5-0.1,17.1-0.1,25.6,0c1.9,0,2.7-0.5,2.6-2.5c-0.2-2.5-0.1-4.9,0-7.4c0.1-10.2,10.4-17.1,19.8-13.4
		c2.2,0.8,3.8,2.5,5.4,4.1c10.2,10.1,20.3,20.2,30.5,30.3c2.2,2.2,4.7,4.2,6.3,6.9c2.8,4.8,2.3,10.7-1.2,15
		c-1.7,2.1-3.8,3.9-5.8,5.8c-10,10-20.1,19.9-30.1,29.9c-3.9,3.9-8.5,5.7-14,4.5c-5.9-1.3-10.8-7.1-11-13.2c-0.1-2.7,0-5.3,0-8
		c0-2.7,0-2.7-2.8-2.7C132,154.7,127.8,154.7,122.8,154.7z M154.3,97.6c-0.4,0.7-0.3,1.4-0.3,2c0,3.9,0,7.8,0,11.7c0,6.2-2.8,9-9,9
		c-10.9,0-21.7,0-32.6,0c-1.9,0-2.6,0.4-2.6,2.5c0.1,4.7,0,9.5,0,14.3c0,2.6,0,2.6,2.5,2.6c10.9,0,21.7,0,32.6,0c6,0,8.9,2.9,8.9,9
		c0,4,0,7.9,0,11.9c0,0.6-0.3,1.3,0.5,1.8c0.5-0.4,1-0.9,1.4-1.3c9.8-9.8,19.5-19.5,29.3-29.3c1.8-1.8,1.8-1.8,0-3.7
		c-9.8-9.8-19.5-19.5-29.3-29.3C155.5,98.4,155.1,97.9,154.3,97.6z"/>
	<path class="st0" d="M61.1,130.1c0,13.4,0,26.7,0,40.1c0,3.9,1,7.5,4,10.2c2.2,2,4.7,3.2,7.8,3.1c7.8,0,15.6,0,23.5,0
		c4.3,0,7,1.7,8.2,4.8c1.8,4.9-1,9.9-6.2,10.1c-9.8,0.2-19.7,0.9-29.5-0.3c-11.5-1.4-21-11.4-22.4-22.9c-0.3-2.1-0.4-4.3-0.4-6.4
		c0-26.4,0-52.8,0-79.2c0-9.2,3.4-16.9,10.8-22.6c4.5-3.5,9.7-5.4,15.4-5.5c8.3-0.1,16.5-0.1,24.8,0c4.6,0,8,3.2,8,7.3
		c0.1,4.2-3.3,7.6-8,7.6c-7.6,0.1-15.3,0.3-22.9-0.1c-7.1-0.4-13.3,5.4-13.2,13.2C61.1,103.1,61.1,116.6,61.1,130.1z"/>
</g>
</svg>
