<?xml version="1.0" encoding="utf-8"?>
<!-- Generator: Adobe Illustrator 24.0.1, SVG Export Plug-In . SVG Version: 6.00 Build 0)  -->
<svg version="1.1" id="Layer_1" xmlns="http://www.w3.org/2000/svg" xmlns:xlink="http://www.w3.org/1999/xlink" x="0px" y="0px"
	 viewBox="0 0 256 256" style="enable-background:new 0 0 256 256;" xml:space="preserve">
<style type="text/css">
	.st0{fill:#FFFFFF;}
</style>
<g>
	<g>
		<path class="st0" d="M126.2,196c-20.8,0-41.6-0.3-62.5,0.1c-9.2,0.2-18.9-7.5-18.8-19c0.2-29.5,0-59,0.1-88.5
			c0-11.3,7.9-19.2,19.2-19.2c28,0,55.9,0,83.9,0c13.5,0,27,0,40.5,0c9.6,0,16.6,5.5,18.9,14.5c0.3,1.4,0.4,2.7,0.4,4.1
			c0,29.9,0,59.7,0,89.6c0,10.8-7.8,18.5-18.6,18.5C168.2,196,147.2,196,126.2,196z M94.6,168.9c8.6,0,17.2,0,25.8,0
			c4.3,0,5.7-1.6,5.6-5.8c-0.2-10.8-8.7-19.6-19.9-20.8c-6.3-0.7-12.6-0.6-18.8-0.4c-13.9,0.5-21.5,7.1-23.8,20
			c-0.9,4.9,0.9,7,5.8,7C77.8,168.9,86.2,168.9,94.6,168.9z M77.1,114.8c0,9.9,7.9,17.9,17.5,17.9c9.7,0,18-8.2,18-17.9
			c0-9.7-8.3-17.9-18-17.9C84.9,96.9,77.1,104.9,77.1,114.8z M166.9,132.7c3,0,6,0,9,0c3.1,0,6.2,0.1,9.3-0.1
			c2.4-0.1,3.8-1.5,4.1-3.8c0.3-2.2-1.1-4.1-3.5-4.7c-1.2-0.3-2.4-0.4-3.6-0.4c-10.1,0-20.1,0-30.2,0c-1.5,0-2.9,0.1-4.3,0.5
			c-1.9,0.6-2.8,1.8-3,3.8c-0.2,2.9,1.4,4.6,4.8,4.6C155.4,132.8,161.2,132.7,166.9,132.7z M167.1,150.8
			C167.1,150.8,167.1,150.8,167.1,150.8c5.4,0,10.8,0,16.2,0c0.9,0,1.9,0,2.8-0.2c2-0.5,3.1-1.9,3.2-3.9c0-2-0.8-3.7-3-4.3
			c-1.2-0.4-2.5-0.6-3.8-0.6c-10.3,0-20.6,0-30.9,0c-1.2,0-2.4,0.2-3.6,0.5c-2.4,0.6-3.5,2.3-3.3,4.8c0.2,2.4,1.8,3.6,5,3.7
			C155.6,150.8,161.4,150.8,167.1,150.8z M167.2,106.1C167.2,106,167.2,106,167.2,106.1c-5.9,0-11.9-0.1-17.8,0
			c-3.2,0-4.6,1.5-4.6,4.3c0,2.7,1.6,4.2,4.7,4.2c11.8,0,23.5,0,35.3,0c1.5,0,2.7-0.5,3.6-1.7c1-1.3,1.3-2.8,0.6-4.3
			c-0.8-1.8-2.2-2.6-4.1-2.6C179,106,173.1,106.1,167.2,106.1z"/>
	</g>
</g>
</svg>
