<?xml version="1.0" encoding="utf-8"?>
<!-- Generator: Adobe Illustrator 24.0.1, SVG Export Plug-In . SVG Version: 6.00 Build 0)  -->
<svg version="1.1" id="Layer_1" xmlns="http://www.w3.org/2000/svg" xmlns:xlink="http://www.w3.org/1999/xlink" x="0px" y="0px"
	 viewBox="0 0 256 256" style="enable-background:new 0 0 256 256;" xml:space="preserve">
<style type="text/css">
	.st0{fill:#FFFFFF;}
</style>
<g>
	<g>
		<path class="st0" d="M128,188.3c-23.9,0-47.8,0-71.6,0c-1.8,0-3.7,0-5.4-0.5c-6.9-2-9.3-9.2-5-14.9c4.6-6.1,9.5-11.9,13.1-18.8
			c6-11.5,8.6-23.8,8.7-36.6c0.1-8.3-0.5-16.7,1.8-24.9c6-21.1,19.6-34.7,40.5-40.8c6.3-1.8,6.1-1.2,5.6-7.5
			c-0.7-10,10.4-15.7,18.5-11c3.6,2.1,5.3,5.2,5.8,9.2c0.1,1.1,0.2,2.3,0,3.4c-0.5,3.4,0.9,4.9,4.3,5.6c8.8,1.9,16.5,5.8,23.3,11.7
			c13.6,11.6,20.3,26.4,20.4,44.2c0.1,9-0.2,18,1.7,26.9c2.5,11.9,7.5,22.5,15.1,31.9c1.8,2.2,3.6,4.4,5.2,6.8
			c4.5,6.6,1.2,13.9-6.7,15c-1.3,0.2-2.7,0.1-4.1,0.1C175.5,188.3,151.8,188.3,128,188.3z M127.8,169.8c17.2,0,34.5,0,51.7,0
			c1.3,0,3,0.6,3.8-0.8c0.7-1.4-0.8-2.5-1.4-3.6c-3.9-7-7-14.3-9.1-22.1c-3.2-12.2-3.3-24.6-3.3-37.1c0-16.2-9.6-29.8-24.8-35.6
			c-7.2-2.7-14.6-2.4-22-2.2c-16.1,0.4-30.4,11.8-34.8,27.3c-1.8,6.4-1.3,12.9-1.3,19.4c-0.2,17.9-3.7,34.9-12.7,50.6
			c-2.2,3.8-1.9,4.1,2.4,4.1C93.5,169.8,110.6,169.8,127.8,169.8z"/>
		<path class="st0" d="M128.1,199.8c6.5,0,13,0,19.5,0c4.3,0,5,0.9,4,5.5c-3.5,16.6-23.6,24.4-37.4,14.5c-5.7-4.1-9.4-9.5-10.1-16.7
			c-0.2-2.3,0.6-3.3,3-3.3C114.1,199.9,121.1,199.8,128.1,199.8z"/>
	</g>
</g>
</svg>
