<?xml version="1.0" encoding="utf-8"?>
<!-- Generator: Adobe Illustrator 24.0.1, SVG Export Plug-In . SVG Version: 6.00 Build 0)  -->
<svg version="1.1" id="Layer_1" xmlns="http://www.w3.org/2000/svg" xmlns:xlink="http://www.w3.org/1999/xlink" x="0px" y="0px"
	 viewBox="0 0 256 256" style="enable-background:new 0 0 256 256;" xml:space="preserve">
<style type="text/css">
	.st0{fill:#FFFFFF;}
</style>
<g>
	<path class="st0" d="M127.7,232c-25.8,0-51.7,0-77.5,0c-8.3,0-13.9-5.7-13.4-14c1.2-19.4,7.9-36.4,22-50.1
		c12.1-11.7,26.5-18.4,43.3-19.8c15.6-1.4,31.4-1.2,47-0.4c28.8,1.5,50.1,15.3,63,41.4c4.6,9.4,6.4,19.5,7,29.8
		c0.4,7.4-5.4,13.2-12.9,13.2C180,232,153.9,232,127.7,232z"/>
	<path class="st0" d="M179.8,76c1.6,26.6-22.3,52.7-52.1,52.3c-28.6-0.4-51.9-23.5-51.8-52.3c0-28.7,23.5-51.8,52.5-51.9
		C157.3,23.9,181.1,49.4,179.8,76z"/>
</g>
</svg>
