<?xml version="1.0" encoding="utf-8"?>
<!-- Generator: Adobe Illustrator 24.0.1, SVG Export Plug-In . SVG Version: 6.00 Build 0)  -->
<svg version="1.1" id="Layer_1" xmlns="http://www.w3.org/2000/svg" xmlns:xlink="http://www.w3.org/1999/xlink" x="0px" y="0px"
	 viewBox="0 0 256 256" style="enable-background:new 0 0 256 256;" xml:space="preserve">
<style type="text/css">
	.st0{fill:#FFFFFF;}
</style>
<g>
	<path class="st0" d="M129.2,128.1c-5-0.1-8.6-0.9-12.1-2.5c-28.4-13.2-56.9-26.3-85.3-39.5c-6.6-3.1-9.3-8.6-6.7-14
		c1.5-3.1,4.1-4.9,7.2-6.3c15.6-7.2,31.2-14.3,46.9-21.5c12.9-5.9,25.8-11.8,38.6-17.8c7.4-3.5,14.6-3.1,21.9,0.3
		c27.4,12.7,54.7,25.4,82.1,38c1.6,0.7,3.1,1.5,4.6,2.3c3.5,2,5.7,4.8,5.6,9.1c0,4.3-2.2,7.2-5.9,8.9c-11.8,5.6-23.7,11-35.6,16.5
		c-17.5,8.1-34.9,16.1-52.4,24.2C134.9,127.3,131.6,128.2,129.2,128.1z"/>
	<path class="st0" d="M127.5,180.1c-3.4-0.1-7.1-1.1-10.5-2.7c-28.5-13.2-57.1-26.4-85.6-39.6c-4.2-1.9-7.3-5-7.2-9.9
		c0-4.7,2.9-7.8,7-9.7c5.7-2.6,11.5-5.1,17.1-7.7c2.2-1,4.1-0.9,6.2,0c18.1,8.4,36.3,16.7,54.5,25.1c6.3,2.9,12.7,5,19.9,4.8
		c6.4-0.1,12.1-1.9,17.7-4.5c18.2-8.4,36.5-16.9,54.7-25.3c2.3-1.1,4.4-1.2,6.8,0c5.7,2.8,11.6,5.3,17.4,8c3.9,1.8,6.4,4.6,6.4,9.3
		c0,4.8-2.5,7.7-6.5,9.5c-16.2,7.5-32.4,15-48.5,22.5c-12.7,5.8-25.3,11.7-38,17.5C135.4,179,131.8,180.1,127.5,180.1z"/>
	<path class="st0" d="M129.4,232c-5.3-0.1-8.8-0.9-12.2-2.5c-28.5-13.2-57.1-26.4-85.6-39.6c-6.4-3-9.1-8.4-6.7-13.8
		c1.2-2.7,3.3-4.6,5.9-5.8c5.7-2.6,11.5-5.1,17.1-7.8c2.5-1.2,4.6-1,7.1,0.1c18,8.4,36.2,16.4,54.1,25.1c13.1,6.4,25.5,6,38.5-0.3
		c18.1-8.8,36.4-17,54.7-25.4c1.6-0.7,3-0.8,4.6-0.1c6.1,2.8,12.2,5.6,18.2,8.4c4,1.9,6.6,4.7,6.6,9.5s-2.5,7.6-6.6,9.5
		c-19.4,9-38.8,18-58.2,27c-9.6,4.4-19.2,8.9-28.9,13.3C135,231.1,131.6,232.1,129.4,232z"/>
</g>
</svg>
