<?xml version="1.0" encoding="utf-8"?>
<!-- Generator: Adobe Illustrator 24.0.1, SVG Export Plug-In . SVG Version: 6.00 Build 0)  -->
<svg version="1.1" id="Layer_1" xmlns="http://www.w3.org/2000/svg" xmlns:xlink="http://www.w3.org/1999/xlink" x="0px" y="0px"
	 viewBox="0 0 256 256" style="enable-background:new 0 0 256 256;" xml:space="preserve">
<style type="text/css">
	.st0{fill:#FFFFFF;}
</style>
<g>
	<g>
		<path class="st0" d="M128.1,210.3c-44.6,0.2-82.5-35.4-82.5-82.1c0-47.6,38.2-82.7,82.7-82.6c43.5,0.1,82.2,34.4,82.1,82.6
			C210.3,176.8,170.7,210.6,128.1,210.3z M135.3,128.1c-5.3-0.1-10.1,0.6-14.6-1.3c-5.1-2.2-9.9-5.1-14.5-8.3
			c-3.6-2.6-3.5-7.6,0.1-10.3c2.9-2.2,6.2-3.3,9.9-2.1c2.5,0.8,5,1.6,7.6,2.3c2.6,0.6,4.9,0.2,6.5-2.2c1.5-2.4,1.4-4.9-0.2-7.1
			c-1.1-1.5-2.4-2.8-3.6-4.3c-4.3-5.1-4.3-9.9-0.1-15.1c1.6-1.9,3.1-3.8,4.6-5.7c2.1-2.6,2.7-5.5,2-8.8c-0.5-2.3-1.6-3.5-4.2-3.5
			c-9.6-0.2-18.9,1.5-27.7,5.5C83.8,75,72,87.9,65.4,105.6c-0.4,1.1-0.4,2.3,0.1,3.4c3,6.6,7.5,11.6,14.8,13.6
			c5.7,1.5,11.3,3.2,16.9,4.9c7.1,2.2,10.6,6.9,10.7,14.3c0,3.6,0,7.2,0,10.9c0,3.8,1.5,6.6,4.8,8.5c3.7,2.1,5.3,5.3,5.3,9.4
			c0,3.8-0.1,7.6,0,11.4c0.2,6.1,5.4,9.3,11,6.7c5-2.3,8.1-6.3,9-11.6c1.2-6.7,4.5-11.9,10.5-15.1c7-3.7,10.4-9.1,9.9-17.3
			c-0.5-8.2-5.5-14.7-13.6-16.4C141.4,127.8,138,128.3,135.3,128.1z M194.6,128.5c-0.3-9.4-1.9-18.6-5.7-27.3
			c-2.3-5.3-2.2-5.3-7.5-3.4c-1.3,0.5-2.6,0.9-3.8,1.5c-4.5,2.1-6.8,6.9-5.3,11.7c1.7,5.6,3.5,11.2,5.4,16.7c0.9,2.6,2.4,4.8,5,5.7
			c2.9,1.1,6,1.8,9,2.7c1.5,0.4,2.2,0,2.4-1.6C194.5,132.6,194.7,130.5,194.6,128.5z"/>
	</g>
</g>
</svg>
